<svg xmlns="http://www.w3.org/2000/svg" width="90" height="22" viewBox="0 0 90 22">
    <g fill="none" fill-rule="nonzero">
        <path fill="#FFF" d="M33.54 4.898h-4.964a.69.69 0 0 0-.681.583l-2.008 12.728a.414.414 0 0 0 .41.478h2.37a.69.69 0 0 0 .681-.583l.541-3.433a.69.69 0 0 1 .681-.583h1.572c3.27 0 5.156-1.582 5.65-4.718.221-1.372.009-2.45-.634-3.204-.705-.83-1.956-1.268-3.618-1.268zm.573 4.65c-.272 1.78-1.632 1.78-2.948 1.78h-.75l.526-3.326a.414.414 0 0 1 .409-.35h.343c.896 0 1.742 0 2.179.512.26.305.34.758.24 1.383zm14.265-.058H46a.414.414 0 0 0-.409.349l-.105.665-.166-.241c-.515-.747-1.662-.997-2.808-.997-2.626 0-4.87 1.99-5.307 4.78-.227 1.393.096 2.724.886 3.652.724.854 1.76 1.21 2.994 1.21 2.116 0 3.29-1.362 3.29-1.362l-.106.66a.414.414 0 0 0 .408.48h2.14a.69.69 0 0 0 .682-.583l1.285-8.136a.412.412 0 0 0-.407-.477zm-3.313 4.626c-.23 1.358-1.308 2.27-2.682 2.27-.69 0-1.242-.222-1.596-.641-.352-.417-.485-1.01-.373-1.67.214-1.347 1.31-2.288 2.663-2.288.675 0 1.224.224 1.586.648.362.427.505 1.024.402 1.681zM61.037 9.49H58.65a.692.692 0 0 0-.571.303l-3.295 4.852-1.396-4.663a.692.692 0 0 0-.662-.492h-2.348a.414.414 0 0 0-.392.547l2.63 7.721-2.473 3.492a.414.414 0 0 0 .338.653h2.386c.226 0 .438-.11.566-.296l7.945-11.467a.414.414 0 0 0-.34-.65zM68.946 4.898H63.98a.69.69 0 0 0-.68.583l-2.008 12.728a.413.413 0 0 0 .408.478h2.547c.238 0 .44-.174.477-.408l.57-3.608a.69.69 0 0 1 .68-.583h1.57c3.271 0 5.158-1.582 5.651-4.718.223-1.372.009-2.45-.633-3.204-.705-.83-1.956-1.268-3.617-1.268zm.572 4.65c-.27 1.78-1.631 1.78-2.948 1.78h-.748l.526-3.326a.412.412 0 0 1 .408-.35h.343c.896 0 1.742 0 2.18.512.26.305.339.758.24 1.383zm14.265-.058h-2.376a.412.412 0 0 0-.408.349l-.105.665-.167-.241c-.514-.747-1.661-.997-2.807-.997-2.626 0-4.869 1.99-5.306 4.78-.226 1.393.095 2.724.885 3.652.726.854 1.76 1.21 2.994 1.21 2.116 0 3.29-1.362 3.29-1.362l-.106.66a.414.414 0 0 0 .41.48h2.14a.69.69 0 0 0 .68-.583l1.286-8.136a.414.414 0 0 0-.41-.477zm-3.314 4.626c-.227 1.358-1.307 2.27-2.681 2.27-.69 0-1.242-.222-1.596-.641-.352-.417-.484-1.01-.374-1.67.216-1.347 1.31-2.288 2.664-2.288.675 0 1.224.224 1.585.648.364.427.508 1.024.402 1.681zm6.116-8.868l-2.037 12.961a.413.413 0 0 0 .408.478h2.048c.34 0 .63-.247.681-.583l2.01-12.728a.414.414 0 0 0-.408-.478h-2.294a.414.414 0 0 0-.408.35z"/>
        <path fill="#253B80" d="M5.274 21.16l.38-2.411-.846-.02H.77L3.576.938a.23.23 0 0 1 .228-.195h6.808c2.26 0 3.82.47 4.634 1.399.382.435.625.89.743 1.391.123.526.125 1.154.005 1.92l-.009.055v.49l.382.217c.291.148.553.347.773.59.327.372.538.845.627 1.406.092.577.062 1.264-.09 2.041-.173.894-.455 1.673-.835 2.31a4.752 4.752 0 0 1-1.325 1.452 5.374 5.374 0 0 1-1.784.805c-.658.171-1.407.257-2.23.257h-.53c-.378 0-.746.137-1.035.381-.289.248-.48.59-.54.964l-.04.217-.67 4.25-.031.156c-.008.05-.022.074-.042.09a.113.113 0 0 1-.07.026H5.274z"/>
        <path fill="#B5B5B5" d="M16.728 5.565c-.02.13-.043.262-.07.399-.897 4.61-3.969 6.202-7.892 6.202H6.77a.97.97 0 0 0-.959.822l-1.023 6.485-.29 1.839a.511.511 0 0 0 .505.59h3.543c.42 0 .776-.304.842-.718l.035-.18.667-4.233.043-.232a.852.852 0 0 1 .841-.72h.53c3.433 0 6.12-1.394 6.905-5.426.328-1.685.158-3.091-.71-4.08a3.387 3.387 0 0 0-.97-.748z"/>
        <path fill="#E2E2E2" d="M15.79 5.19a7.082 7.082 0 0 0-.874-.194 11.093 11.093 0 0 0-1.76-.128H7.818a.85.85 0 0 0-.841.72l-1.135 7.19-.033.21a.97.97 0 0 1 .959-.822h1.997c3.923 0 6.995-1.593 7.893-6.202.027-.137.05-.27.07-.4a4.786 4.786 0 0 0-.94-.374z"/>
        <path fill="#FFF" d="M6.978 5.588a.848.848 0 0 1 .841-.72h5.336c.632 0 1.223.042 1.761.13.364.056.724.142 1.075.255.265.088.51.192.738.312.267-1.704-.002-2.864-.923-3.914C14.79.495 12.958 0 10.613 0H3.805a.973.973 0 0 0-.962.822L.007 18.797a.585.585 0 0 0 .577.676h4.203l1.056-6.695 1.135-7.19z"/>
    </g>
</svg>
