<?xml version="1.0" encoding="utf-8"?>
<!-- Generator: Adobe Illustrator 23.1.0, SVG Export Plug-In . SVG Version: 6.00 Build 0)  -->
<svg version="1.1" id="Layer_1" xmlns="http://www.w3.org/2000/svg" xmlns:xlink="http://www.w3.org/1999/xlink" x="0px" y="0px"
	 viewBox="0 0 472 92" style="enable-background:new 0 0 472 92;" xml:space="preserve">
<style type="text/css">
	.st0{fill-rule:evenodd;clip-rule:evenodd;fill:#0078A9;}
	.st1{fill-rule:evenodd;clip-rule:evenodd;fill:#FFFFFF;}
	.st2{fill-rule:evenodd;clip-rule:evenodd;fill:#3957A7;}
	.st3{fill-rule:evenodd;clip-rule:evenodd;fill:#F9A533;}
	.st4{fill-rule:evenodd;clip-rule:evenodd;fill:#2E2E2E;}
	.st5{fill:#FF5F00;}
	.st6{fill:#EB001B;}
	.st7{fill:#F79E1B;}
</style>
<title>payment02</title>
<g>
	<path class="st0" d="M472,87.1c0,2.7-2.2,4.9-4.9,4.9c0,0,0,0,0,0H330.5c-2.7,0-4.9-2.2-4.9-4.9c0,0,0,0,0,0V4.9
		c0-2.7,2.2-4.9,4.8-4.9c0,0,0,0,0,0h136.6c2.7,0,4.9,2.2,4.9,4.9c0,0,0,0,0,0l0,0V87.1"/>
	<path class="st1" d="M370.8,43.4V42l-0.7,1.5h-6l-0.8-1.6v1.6h-11.3l-1.3-3.2h-2.3l-1.4,3.2h-5.9v-9.6l4.3-9.7h8.2l1.2,2.7v-2.7h10
		l2.2,4.6l2.2-4.6H401c1,0,1.9,0.2,2.8,0.7v-0.7h8v1c1.1-0.7,2.3-1,3.5-1h14.1l1.2,2.8v-2.8h9l1.7,2.8v-2.8h8.6v19.2H441l-2.1-3.4
		v3.3h-11l-1.6-3.4h-2.1l-1.5,3.4h-6.7c-1.6-0.1-3.1-0.6-4.4-1.4v1.4h-13.3v-4.5c0-0.7-0.5-0.6-0.5-0.6h-0.5v5.1H370.8 M364.2,47.6
		h17.4l2.5,2.8l2.6-2.8h13.4c0.9,0,1.7,0.3,2.5,0.7v-0.7h11.9c1,0,1.9,0.3,2.8,0.8v-0.8h15.4v0.7c0.8-0.4,1.7-0.7,2.6-0.7h10v0.7
		c0.8-0.4,1.7-0.7,2.6-0.7h7.9v18.1c-0.9,0.8-2,1.2-3.2,1.2h-10.4v-0.6c-0.8,0.4-1.6,0.6-2.5,0.6h-27.5v-4.7c0-0.5-0.2-0.5-0.6-0.5
		h-0.4v5.2h-8.6v-5.2c-0.8,0.4-1.7,0.5-2.5,0.5H397v4.7h-10.6l-2.4-2.9l-2.6,2.9h-17.2V47.6"/>
	<path class="st0" d="M397.9,56.7h-4.2v-3.3h4.2c1.4,0,1.9,0.9,1.9,1.6C399.7,55.9,399.2,56.7,397.9,56.7z M390.3,62.8l-4.8-5.7
		l4.8-5.3V62.8z M377.5,61.2h-7.7v-2.7h7.4V56h-7.4v-2.6h8.1l3.3,3.7L377.5,61.2z M399,50.5h-11.8l-3.8,4.2l-3.7-4.3h-13.2v13.6
		h12.8l4-4.5l3.9,4.5h6.4v-4.6h4.5c1.7,0,4.9-0.1,4.9-4.8C403,51.3,400.6,50.5,399,50.5L399,50.5z M412.3,56.5h-4.2v-3.1h4.2
		c1.4,0,1.8,0.9,1.8,1.6C414.1,55.9,413.6,56.5,412.3,56.5L412.3,56.5z M415.2,57.9c1.5-0.6,2.5-2.1,2.3-3.8c0-2.9-2.4-3.7-4-3.7
		h-8.7v13.7h3.4v-4.8h4.4c1.1,0,1.6,1.2,1.6,2.3l0.1,2.5h3.3l-0.1-2.8C417.3,59.1,416.7,58.1,415.2,57.9L415.2,57.9z M406.1,40.6
		h3.3V26.9h-3.3V40.6z M378.7,26.9h11v2.9H382v2.6h7.4V35H382v2.7h7.6v2.9h-10.9V26.9 M399.1,32.9H395v-3.1h4.2
		c0.9-0.1,1.7,0.5,1.8,1.4c0,0.1,0,0.1,0,0.2C401,32.3,400.5,33,399.1,32.9L399.1,32.9z M402,34.4c1.5-0.6,2.4-2.2,2.3-3.8
		c0-2.9-2.4-3.6-4-3.6h-8.7v13.7h3.4v-4.8h4.4c1.2,0,1.6,1.2,1.6,2.3l0.1,2.5h3.3l-0.1-2.8C404.2,35.6,403.6,34.5,402,34.4L402,34.4
		z M423.4,34.6l2-4.8l2.1,4.8H423.4z M444,26.9v9.4l-5.6-9.4h-5v12.8l-5.7-12.8h-4.4l-4.6,10.6c0,0-2,0-2.1,0
		c-0.8-0.2-2.1-0.7-2.1-3.1v-1c0-3.2,1.7-3.4,4-3.4h2.1v-3h-4.4c-1.5,0-4.8,1.2-4.9,6.8c-0.1,3.8,1.6,6.9,5.3,6.9h4.4l1.3-3h6.7
		l1.3,3h6.6v-10l6,10h4.6V26.9L444,26.9L444,26.9z M419.2,50.5h11v2.9h-7.6V56h7.4v2.6h-7.4v2.7h7.6v2.8h-11V50.5 M451.3,55.8
		c4.1,0.2,4.5,2.3,4.5,4.5c0,2.5-2.1,3.9-4.3,3.9h-7v-2.9h5.5c0.9,0,2.3,0,2.3-1.3c0-0.6-0.2-1-1.2-1.1c-0.8-0.1-1.5-0.1-2.3-0.2
		c-3.7-0.1-4.6-1.9-4.6-4.2c-0.1-2.1,1.4-3.9,3.5-4c0.2,0,0.3,0,0.5,0h7v2.9H450c-1.2,0-2.4-0.1-2.4,1.2c0,0.8,0.6,1,1.4,1.1
		C449.3,55.7,451.1,55.8,451.3,55.8 M438.7,55.7c4.1,0.2,4.5,2.3,4.5,4.5c0,2.5-2.1,3.9-4.3,3.9h-7v-2.9h5.5c0.9,0,2.3,0,2.3-1.3
		c0-0.6-0.2-1-1.2-1.1c-0.8-0.1-1.5-0.1-2.3-0.2c-3.7-0.1-4.6-1.9-4.6-4.2c-0.1-2.1,1.4-3.9,3.5-4c0.2,0,0.3,0,0.5,0h7v2.9h-5.1
		c-1.2,0-2.4-0.1-2.4,1.2c0,0.8,0.6,1,1.4,1.1C436.7,55.7,438.5,55.8,438.7,55.7 M347.4,34.6l2-4.8l2.1,4.8H347.4z M371,26.9
		l-4.1,9.1l-4.1-9.1h-5.3v13.1l-5.8-13.1h-4.4l-6,13.6h3.5l1.3-3h6.7l1.3,3h6.7V30.5l4.5,10.1h3l4.6-10v10h3.4V26.9H371z"/>
</g>
<g>
	<path class="st2" d="M146.4,87.1c0,2.7-2.2,4.9-4.9,4.9c0,0,0,0,0,0H4.9C2.2,92,0,89.8,0,87.1c0,0,0,0,0,0V4.9C0,2.2,2.2,0,4.9,0
		c0,0,0,0,0,0h136.6c2.7,0,4.9,2.2,4.9,4.9c0,0,0,0,0,0l0,0L146.4,87.1"/>
	<path class="st1" d="M67.1,61.3H60l4.4-27.3h7.1L67.1,61.3 M54,33.9l-6.8,18.8l-0.8-4L44,36.4c0,0-0.3-2.5-3.4-2.5H29.4l-0.1,0.5
		c2.6,0.7,5.1,1.7,7.5,3.1l6.2,23.7h7.4l11.3-27.3H54 M102.2,51.6l3.7-10.2l2.1,10.2H102.2z M110,61.3h6.5l-5.7-27.3h-5.7
		c-1.4-0.1-2.7,0.7-3.3,2L91.2,61.3h7.4l1.5-4.1h9L110,61.3z M91.7,40.5l1-5.9c-2.1-0.7-4.2-1.1-6.4-1.2c-3.5,0-11.9,1.5-11.9,9
		c0,7.1,9.8,7.2,9.8,10.9s-8.8,3-11.8,0.7l-1.1,6.1c2.5,1.1,5.3,1.6,8,1.5c4.9,0,12.2-2.5,12.2-9.4c0-7.1-9.9-7.8-9.9-10.9
		S88.6,38.8,91.7,40.5"/>
</g>
<path class="st3" d="M46.4,48.7L44,36.4c0,0-0.3-2.5-3.4-2.5H29.4l-0.1,0.5c3.9,1,7.5,2.8,10.6,5.3C42.8,42.1,45,45.2,46.4,48.7"/>
<g>
	<path class="st4" d="M309.2,87.1c0,2.7-2.2,4.9-4.9,4.9c0,0,0,0,0,0H167.7c-2.7,0-4.9-2.2-4.9-4.9V4.9c0-2.7,2.2-4.9,4.9-4.9
		c0,0,0,0,0,0h136.6c2.7,0,4.9,2.2,4.9,4.9c0,0,0,0,0,0V87.1"/>
	<g>
		<path class="st5" d="M225.4,30h20.9v34.1h-20.9V30z"/>
		<path class="st6" d="M227.5,47.1c0-6.6,3-12.9,8.3-17c-9.4-7.4-23-5.8-30.4,3.6c-7.4,9.4-5.8,23,3.6,30.4c7.9,6.2,18.9,6.2,26.8,0
			C230.6,60,227.5,53.7,227.5,47.1z"/>
		<path class="st7" d="M270.9,47.1c0,12-9.7,21.7-21.7,21.7c-4.9,0-9.6-1.6-13.4-4.6c9.4-7.4,11-21,3.6-30.4
			c-1.1-1.4-2.3-2.6-3.6-3.6c9.4-7.4,23-5.8,30.4,3.6C269.2,37.5,270.9,42.2,270.9,47.1C270.9,47.1,270.9,47.1,270.9,47.1z"/>
	</g>
</g>
</svg>
